<?xml version="1.0"?>
<svg xmlns="http://www.w3.org/2000/svg" version="1.2" baseProfile="tiny" width="800" height="1700" viewBox="0 0 800 1700" stroke-linecap="round" stroke-linejoin="round">
<g id="Neighborhoods">
<path d="M 122.48 1057.2 126.26 1059.51 126.53 1059.77 126.83 1060.04 126.97 1060.17 127.23 1060.49 127.55 1060.97 128.95 1063.52 130.56 1066.54 131.43 1068.18 132.07 1069.17 132.62 1069.95 133.18 1070.71 134.11 1071.84 135.12 1073 136.04 1074.13 136.62 1074.85 137.65 1076.64 139.68 1081.1 80.73 1105.38 75.4 1107.57 65.46 1111.37 64.19 1111.95 63.46 1112.27 61.17 1113.06 59.82 1113.59 58.66 1114.08 56.86 1115 52.59 1117.36 49.87 1119.15 46.94 1121.42 53.62 1100.01 62.17 1038.93 73.95 1040.24 105.57 1043.99 106.75 1044.12 106.3 1046.71 107.66 1052.41 108.88 1052.43 110.19 1052.63 112.59 1053.12 115.06 1053.83 118.49 1055.07 119.64 1055.56 122.19 1057.03 122.48 1057.2 Z"/>
<path d="M 462.48 1044.77 452.38 1082.42 448.37 1107.67 448.1 1110.55 448.06 1110.55 416.85 1106.96 420.18 1077.67 420.5 1075.45 420.95 1073.96 421.88 1071.78 425.83 1063.09 432.63 1036.85 462.48 1044.77 Z"/>
<path d="M 432.63 1036.85 425.83 1063.09 421.88 1071.78 420.95 1073.96 420.5 1075.45 420.18 1077.67 416.85 1106.96 356.37 1100.01 356.01 1099.95 340.58 1098.31 335.71 1097.92 334.1 1097.8 334.64 1097.18 342.99 1088.24 357.31 1071.98 367.44 1060.76 369.78 1058.24 373.91 1053.82 378.13 1049.67 382.48 1045.38 402.54 1029.18 404.92 1029.66 432.63 1036.85 Z"/>
<path d="M 309.14 1025.77 308.91 1027.82 306.54 1046.2 289.62 1049.22 270.53 1056.07 266.32 1057.16 264.89 1057.4 247.64 1060.04 247.67 1059.59 248.94 1051.31 253.99 1019.03 309.14 1025.77 Z"/>
<path d="M 253.99 1019.03 248.94 1051.31 247.67 1059.59 247.64 1060.04 223.15 1063.72 179.5 1070.47 180.44 1064.26 180.56 1063.44 180.73 1062.03 180.8 1061.43 180.34 1056.68 180.11 1055.52 180.14 1053.58 180.78 1048.16 184.36 1021.03 185.21 1016.04 186.5 1010.97 196.19 1012.1 253.99 1019.03 Z"/>
<path d="M 186.5 1010.97 185.21 1016.04 184.36 1021.03 180.78 1048.16 180.14 1053.58 180.11 1055.52 180.34 1056.68 180.8 1061.43 180.73 1062.03 180.56 1063.44 180.44 1064.26 179.5 1070.47 176.94 1070.64 166.57 1072.31 160.15 1073.5 156.67 1074.41 154.2 1075.22 145.45 1078.72 139.68 1081.1 137.65 1076.64 136.62 1074.85 136.04 1074.13 135.12 1073 134.11 1071.84 133.18 1070.71 132.62 1069.95 132.07 1069.17 131.43 1068.18 130.56 1066.54 128.95 1063.52 127.55 1060.97 127.23 1060.49 126.97 1060.17 126.83 1060.04 126.53 1059.77 126.26 1059.51 122.48 1057.2 122.62 1057 128.75 1020.62 130.85 1020.93 132.84 1004.33 147.99 1006.13 161.78 1007.76 186.5 1010.97 Z"/>
<path d="M 402.54 1029.18 382.48 1045.38 378.13 1049.67 373.91 1053.82 369.78 1058.24 367.44 1060.76 357.31 1071.98 342.99 1088.24 334.64 1097.18 334.1 1097.8 333.12 1097.74 329.77 1097.59 325.52 1097.55 318.2 1097.64 315.28 1097.77 310.59 1097.92 306.87 1098.09 303.34 1098.26 298.39 1098.52 300.72 1083.53 306.54 1046.2 308.91 1027.82 309.14 1025.77 309.46 1022.63 309.54 1021.45 309.26 1019.52 308.72 1017.64 307.92 1015.62 304.28 1008.17 305.15 1007.74 306.63 1007.05 308.65 1006.12 309.56 1005.71 310.93 1005.11 312.09 1004.65 313.44 1004.17 314.85 1003.7 316.09 1003.33 317.23 1003.03 318.34 1002.79 320.01 1002.49 321.64 1002.28 323.29 1002.12 324.83 1002.02 327.01 1002 327.9 1002.07 329.18 1002.17 330.23 1002.31 330.96 1002.42 331.24 1002.46 332.68 1002.79 333.35 1002.95 334.79 1003.31 336.36 1003.75 338.07 1004.3 339.05 1004.64 340.13 1005.04 341.35 1005.5 342.64 1006.01 343.92 1006.51 345.14 1007 346.21 1007.43 347.16 1007.81 347.97 1008.14 349.06 1008.55 350.62 1009.07 352.24 1009.52 353.77 1009.84 355.02 1010.06 356.24 1010.22 357.11 1010.29 358.25 1010.33 361.18 1010.3 362.83 1010.15 363.94 1009.95 364.47 1009.84 368.5 1008.88 369.66 1008.61 371.58 1008.3 373.88 1008.08 376.7 1007.96 378.71 1007.97 381.51 1008.22 383.23 1008.35 384.77 1008.45 386.8 1008.58 388.94 1008.72 389.73 1008.75 391.05 1008.75 392.05 1008.65 393.77 1008.39 394.7 1008.24 397.85 1007.56 401.96 1006.59 408.15 1005.03 426.87 1000.48 426.18 1002.56 425.46 1003.31 423.94 1004.93 421.1 1008.35 418.02 1011.98 415.01 1015.49 413.74 1017.04 412.37 1018.9 411.69 1019.96 410.5 1021.71 408.3 1024.01 407.62 1024.67 402.54 1029.18 Z"/>
<path d="M 88.56 998.96 91.46 999.23 111.57 1001.58 115.95 1002.28 126.59 1003.57 132.84 1004.33 130.85 1020.93 128.75 1020.62 122.62 1057 122.48 1057.2 122.19 1057.03 119.64 1055.56 118.49 1055.07 115.06 1053.83 112.59 1053.12 110.19 1052.63 108.88 1052.43 107.66 1052.41 106.3 1046.71 106.75 1044.12 105.57 1043.99 73.95 1040.24 62.17 1038.93 65.49 1015.17 70.29 1000.33 70.31 1000.31 78.24 992.75 78.32 992.19 78.86 992.41 80.37 992.6 80.61 992.95 81.2 993.59 82.04 994.28 84.96 996.47 88.56 998.96 Z"/>
<path d="M 690.11 978.42 688.11 985.9 684.02 999.97 682.9 1003.53 681.74 1007.38 674.67 1033.83 667.73 1055.95 655.96 1094.48 655.93 1095.07 616.71 1085.13 562.57 1070.98 563.61 1067.22 564.21 1064.63 564.83 1061.02 565.04 1058.49 565.07 1056.56 564.97 1045.52 564.98 1044.02 565 1041.61 565.23 1039.64 565.5 1038.14 566.18 1036.21 567.44 1033.6 571.45 1025.27 584.24 998.65 585.66 995.66 586.4 993.93 588.96 987.24 590.72 983.44 592.13 980.44 592.89 978.43 593.56 975.95 593.68 975.36 594.07 972.82 594.17 971.46 594.15 968.67 593.98 952.99 650.82 968.03 661.54 970.87 690.11 978.42 Z"/>
<path d="M 594.15 968.67 594.17 971.46 594.07 972.82 593.68 975.36 593.56 975.95 592.89 978.43 592.13 980.44 590.72 983.44 588.96 987.24 586.4 993.93 585.66 995.66 584.24 998.65 571.45 1025.27 567.44 1033.6 566.18 1036.21 565.5 1038.14 565.23 1039.64 565 1041.61 564.98 1044.02 564.97 1045.52 565.07 1056.56 565.04 1058.49 564.83 1061.02 564.21 1064.63 563.61 1067.22 562.57 1070.98 462.48 1044.77 432.63 1036.85 404.92 1029.66 402.54 1029.18 407.62 1024.67 408.3 1024.01 410.5 1021.71 411.69 1019.96 412.37 1018.9 413.74 1017.04 415.01 1015.49 418.02 1011.98 421.1 1008.35 423.94 1004.93 425.46 1003.31 426.18 1002.56 426.87 1000.48 427.73 997.87 429.15 992.62 431.53 983.48 438.77 955.83 439.5 953.93 496.69 968.78 506.04 971.29 508.54 971.8 510.88 972.67 523.9 976.18 530.57 951.42 560.59 959.24 565.16 960.42 570.77 961.98 580.77 964.76 594.15 968.67 Z"/>
<path d="M 735.66 947.7 735.98 948.36 737.2 951.18 737.96 953.21 738.85 955.68 739.56 957.76 739.9 959.09 740.45 961.8 741.21 965.05 741.21 969.2 741.43 979.02 741.55 984.59 741.73 993.21 741.33 993.07 739.65 992.57 738.97 992.29 738.53 992.01 737.12 991.01 736.71 990.77 735.75 990.35 733.2 989.14 730.53 988.3 691.61 978.19 690.33 977.63 695.68 957.23 695.75 956.12 695.45 955.61 694.31 950.32 694.31 949.39 694.68 947.63 697.33 937.6 734.75 947.46 735.66 947.7 Z"/>
<path d="M 697.33 937.6 694.68 947.63 694.31 949.39 694.31 950.32 695.45 955.61 695.75 956.12 695.68 957.23 690.33 977.63 690.11 978.42 661.54 970.87 650.82 968.03 593.98 952.99 594.15 936.88 594.43 930.25 594.35 918.71 594.34 917.79 594.13 913.39 594.03 912.23 593.86 910.24 636.21 921.4 697.33 937.6 Z"/>
<path d="M 108.14 891.57 107.64 895.54 106.48 905.15 105.56 910.91 104.81 914.88 104.5 916.19 104.11 917.51 98.52 936.6 97.2 943.52 95.97 951.15 94.9 958.59 94.03 966.16 93.15 973.69 92.41 979.68 91.94 982.39 90.84 987.62 89.81 992.11 89.53 993.69 88.67 998.75 88.56 998.96 84.96 996.47 82.04 994.28 81.2 993.59 80.61 992.95 80.37 992.6 78.86 992.41 78.32 992.19 86.88 930.07 93.48 912.44 93.54 911.95 96.09 892.16 105.9 893.45 105.96 893.03 106.16 892.54 106.36 892.27 106.65 891.99 107.01 891.75 107.24 891.66 107.48 891.59 107.91 891.56 108.14 891.57 Z"/>
<path d="M 530.57 951.42 523.9 976.18 510.88 972.67 508.54 971.8 506.04 971.29 496.69 968.78 439.5 953.93 456.42 922.85 486.06 869.3 501.14 877.62 502.19 878.2 503.63 880.68 523.22 908.66 525.61 911.96 530.87 918.96 532.78 920.63 532.3 920.93 532.47 944.95 530.57 951.42 Z"/>
<path d="M 314.35 865.3 315.12 865.19 347.06 868.64 361.72 870.23 385.98 883.71 413.57 899.06 413.91 899.18 414.27 899.31 456.42 922.85 439.5 953.93 438.77 955.83 431.53 983.48 429.15 992.62 427.73 997.87 426.87 1000.48 408.15 1005.03 401.96 1006.59 397.85 1007.56 394.7 1008.24 393.77 1008.39 392.05 1008.65 391.05 1008.75 389.73 1008.75 388.94 1008.72 386.8 1008.58 384.77 1008.45 383.23 1008.35 381.51 1008.22 378.71 1007.97 376.7 1007.96 373.88 1008.08 371.58 1008.3 369.66 1008.61 368.5 1008.88 364.47 1009.84 363.94 1009.95 362.83 1010.15 361.18 1010.3 358.25 1010.33 357.11 1010.29 356.24 1010.22 355.02 1010.06 353.77 1009.84 352.24 1009.52 350.62 1009.07 349.06 1008.55 347.97 1008.14 347.16 1007.81 346.21 1007.43 345.14 1007 343.92 1006.51 342.64 1006.01 341.35 1005.5 340.13 1005.04 339.05 1004.64 338.07 1004.3 336.36 1003.75 334.79 1003.31 333.35 1002.95 332.68 1002.79 331.24 1002.46 330.96 1002.42 330.23 1002.31 329.18 1002.17 327.9 1002.07 327.01 1002 324.83 1002.02 323.29 1002.12 321.64 1002.28 320.01 1002.49 318.34 1002.79 317.23 1003.03 316.09 1003.33 314.85 1003.7 313.44 1004.17 312.09 1004.65 310.93 1005.11 309.56 1005.71 308.65 1006.12 306.63 1007.05 305.15 1007.74 304.28 1008.17 300.72 1000.76 299.8 998.4 298.69 994.94 298.51 993.85 298.07 989.41 298.07 987.09 298.38 983.87 298.68 981.07 302.8 948.71 305.27 929.52 307.22 918.99 306.15 918.59 305.27 918.29 304.19 918.04 301.68 917.6 293.94 916.67 253.02 911.58 259.98 857.76 260.57 857.97 262.56 858.6 264.14 858.95 266.72 859.38 274.9 860.42 313.74 865.39 314.35 865.3 Z"/>
<path d="M 693.69 844.26 697.07 852.82 698.83 857.17 704.9 872.54 710.79 887.38 714.18 895.84 718.24 905.94 721.24 913.52 724.55 921.57 727 927.43 728.37 930.81 730.97 937.17 733.38 942.94 735.04 946.39 735.66 947.7 734.75 947.46 697.33 937.6 698.22 934.2 698.63 932.49 698.39 930.49 697.8 928.95 696.43 926.99 694.28 925.91 691.22 925.01 688.35 924.2 687.12 923.4 685.71 922.41 684.55 921.25 682.86 918.99 682.39 917.64 682.02 915.29 681.39 913.76 679.98 909.96 673.36 893.15 661.37 863.48 657.83 855.62 655.17 849.81 651.05 841.09 646.91 832.75 646.06 831.67 648.19 832.04 667.88 837.33 685.48 842.1 689.35 843.12 693.69 844.26 Z"/>
<path d="M 486.06 869.3 456.42 922.85 414.27 899.31 413.91 899.18 413.57 899.06 385.98 883.71 415.64 830.76 415.76 830.26 462.51 856.22 486.06 869.3 Z"/>
<path d="M 646.06 831.67 646.91 832.75 651.05 841.09 655.17 849.81 657.83 855.62 661.37 863.48 673.36 893.15 679.98 909.96 681.39 913.76 682.02 915.29 682.39 917.64 682.86 918.99 684.55 921.25 685.71 922.41 687.12 923.4 688.35 924.2 691.22 925.01 694.28 925.91 696.43 926.99 697.8 928.95 698.39 930.49 698.63 932.49 698.22 934.2 697.33 937.6 636.21 921.4 593.86 910.24 593.81 909.72 593.53 906.72 593.43 903.12 593.44 899.4 593.46 896.32 593.37 892.45 593.31 889.48 593.39 887.38 593.5 886.01 593.85 884.19 593.42 882.86 593.48 879.83 593.57 879.5 593.63 879.13 592.72 825.63 592.9 825.22 593.08 824.79 594.78 818.19 594.82 817.88 594.87 817.55 601.77 814.76 618.11 823.67 620.59 824.92 622.06 825.55 643.77 831.28 646.06 831.67 Z"/>
<path d="M 266.15 809.28 259.98 857.76 259.33 857.49 257.9 856.96 254.78 856.05 253.37 855.69 228.17 852.55 234.17 805.2 266.15 809.28 Z"/>
<path d="M 369.31 804.49 369.68 804.7 399.41 821.19 415.76 830.26 415.64 830.76 385.98 883.71 361.72 870.23 347.06 868.64 356.25 798.1 364.2 801.63 369.31 804.49 Z"/>
<path d="M 356.25 798.1 347.06 868.64 315.12 865.19 314.35 865.3 324.71 785.58 325.06 784.55 356.25 798.1 Z"/>
<path d="M 591.43 808.2 592.96 809.14 596.78 811.76 600.34 813.95 601.77 814.76 594.87 817.55 594.82 817.88 594.78 818.19 593.08 824.79 592.9 825.22 592.72 825.63 593.63 879.13 593.57 879.5 593.48 879.83 593.42 882.86 593.85 884.19 593.5 886.01 593.39 887.38 593.31 889.48 593.37 892.45 593.46 896.32 593.44 899.4 593.43 903.12 593.53 906.72 593.81 909.72 593.86 910.24 594.03 912.23 594.13 913.39 594.34 917.79 594.35 918.71 594.43 930.25 594.15 936.88 593.98 952.99 594.15 968.67 580.77 964.76 570.77 961.98 565.16 960.42 560.59 959.24 530.57 951.42 532.47 944.95 532.3 920.93 532.78 920.63 530.87 918.96 525.61 911.96 523.22 908.66 503.63 880.68 502.19 878.2 501.14 877.62 486.06 869.3 486.67 868.45 487.7 867.33 490.66 866.09 538.94 779.11 571.93 797.39 591.43 808.2 Z"/>
<path d="M 462.51 856.22 415.76 830.26 399.41 821.19 428.16 769.09 491.51 804 462.51 856.22 Z"/>
<path d="M 325.06 784.55 324.71 785.58 314.35 865.3 313.74 865.39 274.9 860.42 266.72 859.38 264.14 858.95 262.56 858.6 260.57 857.97 259.98 857.76 266.15 809.28 267.07 800.74 267.32 799.78 267.49 799.12 267.6 798.86 267.79 798.58 290.96 765.63 302.12 773.23 306.48 775.89 325.06 784.55 Z"/>
<path d="M 657.71 746.81 659.49 750.14 663.91 758.43 667.67 765.48 669.78 769.41 671.39 772.57 674.01 778.06 675.37 781.36 677 785.46 679.1 790.82 680.59 794.65 681.56 797.22 682.69 800.8 683.34 803.37 684.04 807.15 684.44 809.9 685.01 813.7 685.44 817.16 685.85 820.15 686.12 821.82 686.6 824.25 686.95 825.92 687.9 829.24 688.6 831.32 689.92 834.83 692.73 841.81 693.69 844.26 689.35 843.12 685.48 842.1 667.88 837.33 648.19 832.04 646.06 831.67 643.77 831.28 622.06 825.55 620.59 824.92 618.11 823.67 601.77 814.76 600.34 813.95 596.78 811.76 592.96 809.14 591.43 808.2 617.59 760.83 616.02 756.86 621.78 754.53 622.17 754.37 643.87 745.55 651.68 746.27 657.71 746.81 Z"/>
<path d="M 542.65 747.85 562.92 759.03 585.97 771.71 571.93 797.39 538.94 779.11 505 760.24 519.22 734.87 542.65 747.85 Z"/>
<path d="M 267.32 799.78 267.07 800.74 266.15 809.28 234.17 805.2 228.17 852.55 199.46 848.96 142.99 842.02 103.16 837.25 131.81 790.82 168.12 731.98 173.53 735.98 244.37 784.45 266.26 799.51 266.7 799.67 267.32 799.78 Z"/>
<path d="M 463.15 737 505 760.24 538.94 779.11 490.66 866.09 487.7 867.33 486.67 868.45 486.06 869.3 462.51 856.22 491.51 804 428.16 769.09 399.41 821.19 369.68 804.7 369.31 804.49 420.07 713.97 429.73 718.86 447 728.04 463.15 737 Z"/>
<path d="M 616.02 756.86 617.59 760.83 591.43 808.2 571.93 797.39 585.97 771.71 562.92 759.03 542.65 747.85 549.88 734.74 549.43 734.49 561.72 714.23 563.8 711.81 585.25 723.86 585.66 724.24 595.67 736.99 596.47 737.72 602.38 741.17 603.44 741.95 604.72 742.99 613.43 750.69 616.02 756.86 Z"/>
<path d="M 290.96 765.63 267.79 798.58 267.6 798.86 267.49 799.12 267.32 799.78 266.7 799.67 266.26 799.51 244.37 784.45 173.53 735.98 168.12 731.98 189.98 696.56 226.45 721.31 247.25 735.56 290.96 765.63 Z"/>
<path d="M 420.07 713.97 369.31 804.49 364.2 801.63 356.25 798.1 325.06 784.55 334.71 767.3 348.91 743.3 356.14 731.32 378.32 690.9 420.07 713.97 Z"/>
<path d="M 378.32 690.9 356.14 731.32 348.91 743.3 334.71 767.3 325.06 784.55 306.48 775.89 302.12 773.23 290.96 765.63 342.87 670.71 354.39 677.72 366.78 684.63 374.82 689.04 378.32 690.9 Z"/>
<path d="M 384.58 1593.06 380.75 1599.07 374.37 1626.71 352.25 1667.43 334.68 1699.04 328.07 1695.93 321.5 1690.45 318.88 1691.59 318.82 1691.56 316.74 1692.52 315.37 1693.11 311.83 1693.84 306.45 1693.84 297.66 1690.3 291.17 1679.82 289.03 1671.04 285.48 1666.17 275.98 1660.56 275.02 1659.67 274.94 1659.51 273.01 1655.39 273.01 1649.36 277.71 1638.4 277.71 1638.38 277.77 1638.23 274.4 1628.77 274.31 1628.46 271.35 1618.16 271.92 1616.29 271.87 1616.03 275.89 1612.26 278.71 1609.46 291.89 1596.98 292.54 1596.61 296.39 1591.85 319 1566.69 330 1554.23 340.28 1561.03 341.51 1561.96 339.5 1564.22 360.63 1582.03 365.12 1576.93 370.5 1581.33 380.37 1589.68 384.58 1593.06 Z"/>
<path d="M 337.28 1491.84 337.62 1491.91 338.17 1492.2 340.28 1493.45 342.57 1495 360.51 1506.88 361.58 1507.59 361.25 1507.79 360.85 1508.04 360.41 1508.32 359.96 1508.61 359.47 1508.94 358.9 1509.32 358.24 1509.79 357.47 1510.37 356.62 1511.03 355.7 1511.76 354.75 1512.56 353.8 1513.38 352.85 1514.24 351.93 1515.11 351.04 1515.99 350.19 1516.86 349.39 1517.71 348.66 1518.53 347.97 1519.3 347.37 1520.01 346.81 1520.67 346.29 1521.32 345.78 1521.97 345.27 1522.66 344.76 1523.37 344.24 1524.11 343.73 1524.88 343.22 1525.67 342.72 1526.48 342.23 1527.29 341.32 1528.88 340.56 1530.27 339.64 1532 339.09 1531.64 322.63 1520.71 263.57 1481.9 281.21 1455.21 306.61 1471.98 325.83 1484.94 337.28 1491.84 Z"/>
<path d="M 422.55 1462.49 434.09 1469.93 438.02 1472.76 444.94 1477.29 454.22 1483.37 446.74 1495.59 384.58 1593.06 380.37 1589.68 370.5 1581.33 365.12 1576.93 360.63 1582.03 339.5 1564.22 341.51 1561.96 340.28 1561.03 330 1554.23 319 1566.69 296.39 1591.85 292.54 1596.61 291.89 1596.98 278.71 1609.46 275.89 1612.26 271.87 1616.03 270.59 1609.21 268.18 1601.3 268.06 1600.91 268.17 1596.06 268.16 1595.94 268.16 1595.92 267.83 1592.34 267.27 1590.57 265.47 1589.41 267.98 1589.13 271.8 1588.73 275.72 1557.57 290.73 1555.85 294.01 1552.25 306.41 1538.86 314.63 1529.81 322.63 1520.71 339.09 1531.64 339.64 1532 340.56 1530.27 341.32 1528.88 342.23 1527.29 342.72 1526.48 343.22 1525.67 343.73 1524.88 344.24 1524.11 344.76 1523.37 345.27 1522.66 345.78 1521.97 346.29 1521.32 346.81 1520.67 347.37 1520.01 347.97 1519.3 348.66 1518.53 349.39 1517.71 350.19 1516.86 351.04 1515.99 351.93 1515.11 352.85 1514.24 353.8 1513.38 354.75 1512.56 355.7 1511.76 356.62 1511.03 357.47 1510.37 358.24 1509.79 358.9 1509.32 359.47 1508.94 359.96 1508.61 360.41 1508.32 360.85 1508.04 361.25 1507.79 361.58 1507.59 360.51 1506.88 342.57 1495 340.28 1493.45 338.17 1492.2 337.62 1491.91 337.28 1491.84 380.21 1427.72 417.62 1452.52 416.11 1458.36 422.55 1462.49 Z"/>
<path d="M 380.21 1427.72 337.28 1491.84 325.83 1484.94 306.61 1471.98 281.21 1455.21 281.35 1454.48 281.63 1454.06 287.83 1444.64 288.73 1443.46 292.62 1439.29 294.05 1440.24 297.69 1435.84 298.07 1435.21 312.02 1412.51 340.6 1431.63 344.03 1433.99 350.11 1419.14 351.5 1415.79 353.62 1410.61 356.5 1412.49 356.8 1412.06 380.21 1427.72 Z"/>
<path d="M 281.35 1454.48 281.21 1455.21 263.57 1481.9 322.63 1520.71 314.63 1529.81 306.41 1538.86 294.01 1552.25 290.73 1555.85 275.72 1557.57 271.8 1588.73 267.98 1589.13 265.47 1589.41 257.59 1584.32 236.26 1575.75 224.37 1565.94 220.09 1563 216.47 1560.52 202.92 1551.23 185.72 1541.26 171.39 1530.57 169.38 1528.69 156.45 1516.34 147.22 1507.92 131.52 1493.21 131.09 1492.66 133.8 1490.37 137.3 1487.49 146.69 1479.24 174.33 1458.19 188.73 1447.07 192.44 1443.33 203.84 1429.68 213 1419.22 226.6 1408.49 240.46 1397.74 250.14 1411.28 239.18 1426.8 239.54 1427.53 280.69 1454.89 281.35 1454.48 Z"/>
<path d="M 509.17 1375.32 529 1388.3 503.36 1410.42 485.34 1432.07 470.15 1457.38 454.22 1483.37 444.94 1477.29 438.02 1472.76 434.09 1469.93 422.55 1462.49 433.36 1442.6 434 1440.88 434.11 1440.57 446.45 1365.42 509.17 1375.32 Z"/>
<path d="M 240.66 1397.42 240.4 1397.61 226.54 1408.36 212.94 1419.09 203.78 1429.55 192.38 1443.2 188.68 1446.95 174.27 1458.07 146.64 1479.12 146.23 1478.54 145.81 1477.82 145.22 1476.44 144 1473.18 143.19 1470.99 142.06 1468.1 141.41 1466.35 140.54 1464.13 139.35 1461.07 138.91 1459.96 137.27 1455.75 136.21 1452.98 135.6 1451.24 135.17 1449.19 134.92 1447.09 135 1443.41 135.16 1441.33 135.49 1439.2 136.5 1431.51 137.55 1425.95 140.65 1419.93 141.94 1416.81 142.59 1414.21 143.15 1410.35 151.03 1354.22 158.16 1352.59 159.34 1352.57 230.86 1361.84 240.75 1338.48 240.61 1338.04 240.79 1337.41 241.28 1336.41 241.59 1335.81 241.89 1335.04 242.28 1333.99 243.17 1332.01 243.34 1333.28 243.23 1335.24 243.29 1336.32 243.35 1341.11 243.11 1341.74 243.09 1345.43 243.31 1349.57 243.36 1350.63 243.72 1353.16 244.4 1355.42 245.33 1358.24 246.55 1361.98 247.04 1363.79 247.58 1366.46 247.94 1370.36 247.97 1376.89 248.07 1391.83 240.66 1397.42 Z"/>
<path d="M 145.72 1274.66 145.08 1277.68 144.49 1281.9 144.18 1287.51 144.25 1293.78 144.81 1300.13 144.96 1302.31 145.24 1304.15 145.49 1305.2 146.02 1306.74 146.79 1308.3 147.73 1309.7 148.55 1310.72 149.35 1311.56 152.26 1313.75 153.37 1314.67 153.94 1315.34 154.63 1316.37 155.76 1318.38 151.09 1354.35 143.21 1410.48 142.65 1414.34 141.99 1416.94 140.71 1420.06 137.61 1426.08 136.55 1431.63 135.55 1439.32 130.93 1435.81 119.3 1427.61 113.78 1423.8 110.78 1421.18 106.65 1416.62 105.31 1414.67 103.6 1411.86 101.95 1408.65 100.8 1405.53 82.77 1403.07 82.52 1402.26 80.48 1395.51 77.26 1394.33 74.5 1394.32 71.25 1395.89 66.68 1383.54 66.9 1382.83 66.93 1381.92 66.7 1380.27 67.16 1377.48 65.94 1373.59 64.77 1373.15 62.57 1372.91 61.29 1369.31 60.26 1369.23 61.41 1367.47 62.01 1365.3 62.04 1364.16 61.74 1362.46 60.35 1351.61 59.36 1349.54 58.3 1348.46 57.06 1347.88 55.75 1347.05 55.43 1345.89 54.81 1342.17 53.85 1337.56 51.7 1332.04 49.4 1327.8 47.33 1324.74 45.18 1322.43 42.06 1320.05 45.26 1317.43 49.08 1314.97 113.1 1275.84 117.08 1273.43 118.77 1272.63 120.64 1272.18 122.6 1272 123.6 1271.94 126.07 1272.26 145.72 1274.66 Z M 57.01 1399.69 39.36 1377.74 36.6 1369.95 24.58 1336.01 26.46 1334.26 32.99 1328.27 33.53 1328.87 35.72 1331.26 36.64 1332.46 38.52 1335.55 39.31 1337.08 42.21 1343.97 42.9 1346.7 44.26 1356.69 44.44 1358.31 44.52 1360.67 44.73 1365.41 44.76 1365.99 44.41 1368.72 44.21 1370.27 44.21 1373.23 45.1 1373.72 53.27 1380.22 55.24 1382.24 56.85 1384.46 57.37 1385.28 62.04 1392.75 64.36 1397.77 64.21 1400.18 64.18 1400.58 57.01 1399.69 Z" fill-rule="evenodd"/>
<path d="M 135.55 1439.32 135.22 1441.45 135.05 1443.54 134.97 1447.22 135.22 1449.32 135.65 1451.37 136.26 1453.1 137.33 1455.88 138.97 1460.08 139.4 1461.2 140.6 1464.26 141.47 1466.48 142.11 1468.23 143.24 1471.12 144.05 1473.31 145.27 1476.57 145.87 1477.95 146.28 1478.66 146.69 1479.24 137.3 1487.49 133.8 1490.37 131.09 1492.66 110.56 1466.48 104.54 1458.8 71.69 1417.94 57.01 1399.69 64.18 1400.58 64.21 1400.18 64.36 1397.77 62.04 1392.75 57.37 1385.28 56.85 1384.46 55.24 1382.24 53.27 1380.22 45.1 1373.72 44.21 1373.23 44.21 1370.27 44.41 1368.72 44.76 1365.99 44.73 1365.41 44.52 1360.67 44.44 1358.31 44.26 1356.69 42.9 1346.7 42.21 1343.97 39.31 1337.08 38.52 1335.55 36.64 1332.46 35.72 1331.26 33.53 1328.87 32.99 1328.27 42.06 1320.05 45.18 1322.43 47.33 1324.74 49.4 1327.8 51.7 1332.04 53.85 1337.56 54.81 1342.17 55.43 1345.89 55.75 1347.05 57.06 1347.88 58.3 1348.46 59.36 1349.54 60.35 1351.61 61.74 1362.46 62.04 1364.16 62.01 1365.3 61.41 1367.47 60.26 1369.23 61.29 1369.31 62.57 1372.91 64.77 1373.15 65.94 1373.59 67.16 1377.48 66.7 1380.27 66.93 1381.92 66.9 1382.83 66.68 1383.54 71.25 1395.89 74.5 1394.32 77.26 1394.33 80.48 1395.51 82.52 1402.26 82.77 1403.07 100.8 1405.53 101.95 1408.65 103.6 1411.86 105.31 1414.67 106.65 1416.62 110.78 1421.18 113.78 1423.8 119.3 1427.61 130.93 1435.81 135.55 1439.32 Z"/>
<path d="M 420.31 1309.25 420.31 1309.78 517.38 1324.86 516.91 1325.2 516.42 1328.7 516.28 1329.96 516.22 1332.35 509.17 1375.32 446.45 1365.42 434.11 1440.57 434 1440.88 433.36 1442.6 422.55 1462.49 416.11 1458.36 417.62 1452.52 380.21 1427.72 356.8 1412.06 356.5 1412.49 353.62 1410.61 354.39 1408.73 357.52 1401.01 357.86 1399.92 358.11 1399.09 358.36 1398.14 358.56 1397.15 358.71 1396.11 358.81 1394.99 358.84 1393.75 358.82 1392.42 358.72 1391.05 358.55 1389.69 358.07 1386.86 357.71 1385.26 357.25 1383.21 356.64 1380.52 356 1377.65 355.4 1374.99 354.27 1369.95 354.11 1369.22 353.84 1368 353.65 1367.27 353.47 1366.64 353.21 1365.82 352.86 1364.81 352.43 1363.66 351.9 1362.39 351.29 1361.05 350.64 1359.71 350.01 1358.45 349.44 1357.34 348.4 1355.3 347.72 1354 346.84 1352.32 345.71 1350.14 344.51 1347.82 343.42 1345.7 341.38 1341.72 341.16 1341.25 340.49 1339.79 340.07 1338.77 339.64 1337.65 339.23 1336.48 338.85 1335.27 338.52 1334.07 338.23 1332.92 338 1331.84 337.82 1330.86 337.68 1329.96 337.57 1329.11 337.41 1327.45 337.36 1326.86 337.33 1325.74 337.3 1323.92 337.28 1322.5 337.23 1318.25 337.2 1315.64 337.2 1312.89 337.13 1308.37 337.13 1307.94 337.11 1307.39 337.1 1306.66 337.08 1305.87 337.07 1305.1 337.05 1304.33 337.01 1303.54 336.95 1302.69 336.86 1301.82 336.77 1300.98 336.66 1300.19 336.55 1299.46 336.39 1298.49 420.31 1309.25 Z"/>
<path d="M 336.39 1298.49 336.55 1299.46 336.66 1300.19 336.77 1300.98 336.86 1301.82 336.95 1302.69 337.01 1303.54 337.05 1304.33 337.07 1305.1 337.08 1305.87 337.1 1306.66 337.11 1307.39 337.13 1307.94 337.13 1308.37 337.2 1312.89 337.2 1315.64 337.23 1318.25 337.28 1322.5 337.3 1323.92 337.33 1325.74 337.36 1326.86 337.41 1327.45 337.57 1329.11 337.68 1329.96 337.82 1330.86 338 1331.84 338.23 1332.92 338.52 1334.07 338.85 1335.27 339.23 1336.48 339.64 1337.65 340.07 1338.77 340.49 1339.79 341.16 1341.25 341.38 1341.72 343.42 1345.7 344.51 1347.82 345.71 1350.14 346.84 1352.32 347.72 1354 348.4 1355.3 349.44 1357.34 350.01 1358.45 350.64 1359.71 351.29 1361.05 351.9 1362.39 352.43 1363.66 352.86 1364.81 353.21 1365.82 353.47 1366.64 353.65 1367.27 353.84 1368 354.11 1369.22 354.27 1369.95 355.4 1374.99 356 1377.65 356.64 1380.52 357.25 1383.21 357.71 1385.26 358.07 1386.86 358.55 1389.69 358.72 1391.05 358.82 1392.42 358.84 1393.75 358.81 1394.99 358.71 1396.11 358.56 1397.15 358.36 1398.14 358.11 1399.09 357.86 1399.92 357.52 1401.01 354.39 1408.73 353.62 1410.61 351.5 1415.79 350.11 1419.14 344.03 1433.99 340.6 1431.63 312.02 1412.51 298.07 1435.21 297.69 1435.84 294.05 1440.24 292.62 1439.29 288.73 1443.46 287.83 1444.64 281.63 1454.06 281.35 1454.48 280.69 1454.89 239.54 1427.53 239.18 1426.8 250.14 1411.28 240.46 1397.74 240.72 1397.55 248.12 1391.95 248.03 1377.02 247.99 1370.48 247.63 1366.59 247.1 1363.92 246.6 1362.1 245.38 1358.37 244.45 1355.55 243.78 1353.28 243.42 1350.76 243.36 1349.69 243.14 1345.56 243.17 1341.87 243.4 1341.24 243.34 1336.45 243.28 1335.36 243.4 1333.41 243.22 1332.13 245.13 1318.23 245.28 1317.7 245.7 1316.91 261.27 1288.13 261.42 1287.85 262.59 1288.16 280.84 1290.73 312.55 1295.2 324.17 1296.67 325.27 1297 325.91 1297.19 336.39 1298.49 Z"/>
<path d="M 261.27 1288.13 245.7 1316.91 245.28 1317.7 245.13 1318.23 243.22 1332.13 242.33 1334.12 241.94 1335.17 241.65 1335.94 241.33 1336.54 240.85 1337.54 240.67 1338.17 240.8 1338.61 230.91 1361.97 159.39 1352.7 158.21 1352.72 151.09 1354.35 155.76 1318.38 154.63 1316.37 153.94 1315.34 153.37 1314.67 152.26 1313.75 149.35 1311.56 148.55 1310.72 147.73 1309.7 146.79 1308.3 146.02 1306.74 145.49 1305.2 145.24 1304.15 144.96 1302.31 144.81 1300.13 144.25 1293.78 144.18 1287.51 144.49 1281.9 145.08 1277.68 145.72 1274.66 228.32 1285.48 243.48 1287.56 249.22 1288.17 251.38 1288.14 253.27 1287.9 254.81 1287.6 255.67 1287.41 256.55 1287.39 257.67 1287.56 258.2 1287.64 261.27 1288.13 Z"/>
<path d="M 585.85 1286.05 589.88 1290.83 599.97 1302.82 612 1316.72 529 1388.3 509.17 1375.32 516.22 1332.35 516.28 1329.96 516.42 1328.7 516.91 1325.2 517.38 1324.86 525.32 1274.52 578.47 1282.94 579.51 1283.42 583.47 1287.68 585.85 1286.05 Z"/>
<path d="M 525.32 1274.52 517.38 1324.86 420.31 1309.78 420.31 1309.25 423.49 1284.38 423.92 1280.66 427.49 1277.3 431.81 1272.3 434.52 1272.78 435.14 1273.02 436.34 1273.43 437.31 1273.75 439.33 1274.14 441.47 1274.47 447.71 1275.4 460.33 1277.31 462.35 1264.61 525.32 1274.52 Z"/>
<path d="M 281.05 1211.5 272.75 1264.2 272.19 1267.22 271.99 1268.29 271 1270.4 261.42 1287.85 261.27 1288.13 258.2 1287.64 257.67 1287.56 256.55 1287.39 255.67 1287.41 254.81 1287.6 253.27 1287.9 251.38 1288.14 249.22 1288.17 243.48 1287.56 228.32 1285.48 145.72 1274.66 146.56 1271.39 147.45 1268.45 148.67 1265.3 149.75 1262.93 152.18 1257.24 153.06 1254.77 153.7 1251.4 154.42 1245.27 158.55 1214.04 159.33 1208.91 159.87 1206.15 160.74 1202.83 161.36 1201.16 162.46 1198.75 163.6 1196.63 163.77 1196.35 178.16 1198.22 178.19 1197.93 196.49 1200.26 214.98 1202.59 215.63 1202.5 244.63 1206.79 281.05 1211.5 Z"/>
<path d="M 525.32 1274.52 462.35 1264.61 460.33 1277.31 447.71 1275.4 441.47 1274.47 439.33 1274.14 437.31 1273.75 436.34 1273.43 435.14 1273.02 434.52 1272.78 431.81 1272.3 438.12 1264.97 442.1 1261.39 458.66 1247.08 466.44 1239.46 474.04 1232.28 478.46 1228.42 481.49 1226.05 486.11 1222.19 488.65 1220.21 489.73 1219.49 496.07 1216.01 531.26 1196.74 538.67 1192.61 532.23 1231.77 531.73 1234.87 525.32 1274.52 Z"/>
<path d="M 432.29 1207.75 432.36 1208.76 425.02 1271.2 423.92 1280.66 423.49 1284.38 420.31 1309.25 336.39 1298.49 325.91 1297.19 325.27 1297 324.17 1296.67 312.55 1295.2 280.84 1290.73 262.59 1288.16 261.42 1287.85 271 1270.4 271.99 1268.29 272.19 1267.22 272.75 1264.2 281.05 1211.5 283.68 1192.42 286.42 1192.55 290.52 1192.34 296.45 1191.87 297.68 1191.85 298.61 1191.93 303.08 1192.49 340.66 1196.91 432.29 1207.75 Z"/>
<path d="M 174.88 1179.11 173.78 1181.34 167.71 1190.61 166.1 1192.9 164.6 1195.02 163.77 1196.35 163.6 1196.63 162.46 1198.75 161.36 1201.16 160.74 1202.83 159.87 1206.15 159.33 1208.91 158.55 1214.04 154.42 1245.27 153.7 1251.4 153.06 1254.77 152.18 1257.24 149.75 1262.93 148.67 1265.3 147.45 1268.45 146.56 1271.39 145.72 1274.66 126.07 1272.26 123.6 1271.94 122.6 1272 120.64 1272.18 118.77 1272.63 117.08 1273.43 113.1 1275.84 49.08 1314.97 45.26 1317.43 42.06 1320.05 32.99 1328.27 26.46 1334.26 24.58 1336.01 2.41 1273.43 1 1269.46 9.77 1241.4 10.05 1241.14 13.45 1238.2 16.09 1236.2 18.43 1234.7 21.77 1232.76 24.64 1231.26 28.23 1229.51 29.81 1228.75 37 1225.12 40.55 1222.77 43.91 1219.96 47.23 1216.26 50.37 1212.01 53.21 1207.9 56.03 1204.14 58.2 1201.42 61.61 1197.67 64.08 1195.21 70.81 1189.2 73.24 1186.99 76.51 1184.09 79.45 1181.46 82.8 1178.36 84.18 1177.08 86.04 1174.94 87.31 1173.33 89.1 1170.7 90.24 1168.66 90.27 1168.58 174.88 1179.11 Z"/>
<path d="M 595.89 1168.79 591.36 1180.1 589.62 1185.24 588.44 1189.63 585 1206.89 584.77 1208.04 579.34 1235.47 578.98 1237.44 578.36 1241.06 577.64 1245 576.72 1250.05 576.6 1250.78 576.56 1251.09 576.47 1252.56 576.43 1253.72 576.45 1256.2 576.52 1257.63 576.7 1259.53 576.95 1261.14 577.39 1263.33 577.83 1265.14 578.2 1266.4 578.63 1267.7 579.08 1268.98 579.77 1270.76 580.23 1271.69 580.59 1272.44 581.49 1274.21 582.08 1275.38 582.96 1277.18 583.96 1279.25 584.86 1281.16 585.56 1282.71 586.03 1283.81 586.65 1285.5 585.85 1286.05 583.47 1287.68 579.51 1283.42 578.47 1282.94 525.32 1274.52 531.73 1234.87 532.23 1231.77 538.67 1192.61 540.18 1191.74 550.74 1184.89 552.92 1183.68 554.58 1182.87 555.94 1182.4 559.56 1181.38 569.85 1178.23 575.2 1176.03 580.41 1174.01 584.5 1172.55 587.24 1171.57 596.21 1168.22 595.89 1168.79 Z"/>
<path d="M 318.15 1162.82 345.94 1166.15 436.95 1176.91 432.25 1207.19 432.29 1207.75 340.66 1196.91 303.08 1192.49 298.61 1191.93 297.68 1191.85 296.45 1191.87 290.52 1192.34 286.42 1192.55 283.68 1192.42 284.17 1188.78 288.89 1159.37 318.15 1162.82 Z"/>
<path d="M 503.66 1168.02 496.07 1216.01 489.73 1219.49 488.65 1220.21 486.11 1222.19 481.49 1226.05 478.46 1228.42 474.04 1232.28 466.44 1239.46 458.66 1247.08 442.1 1261.39 438.12 1264.97 431.81 1272.3 427.49 1277.3 423.92 1280.66 425.02 1271.2 432.36 1208.76 432.29 1207.75 432.25 1207.19 436.95 1176.91 440.29 1158.22 440.99 1158.31 503.66 1168.02 Z"/>
<path d="M 601.83 1148.66 596.7 1167.4 596.41 1167.88 596.21 1168.22 587.24 1171.57 584.5 1172.55 580.41 1174.01 575.2 1176.03 569.85 1178.23 559.56 1181.38 555.94 1182.4 554.58 1182.87 552.92 1183.68 550.74 1184.89 540.18 1191.74 538.67 1192.61 541.59 1173.6 548.14 1131.01 555.19 1131.75 558.24 1132.19 560.48 1132.6 564.19 1133.56 568.36 1134.82 572.22 1136.15 576.64 1137.66 583.27 1140.21 585.5 1141.07 601.83 1148.66 Z"/>
<path d="M 586.65 1285.5 586.03 1283.81 585.56 1282.71 584.86 1281.16 583.96 1279.25 582.96 1277.18 582.08 1275.38 581.49 1274.21 580.59 1272.44 580.23 1271.69 579.77 1270.76 579.08 1268.98 578.63 1267.7 578.2 1266.4 577.83 1265.14 577.39 1263.33 576.95 1261.14 576.7 1259.53 576.52 1257.63 576.45 1256.2 576.43 1253.72 576.47 1252.56 576.56 1251.09 576.6 1250.78 576.72 1250.05 577.64 1245 578.36 1241.06 578.98 1237.44 579.34 1235.47 584.77 1208.04 585 1206.89 588.44 1189.63 589.62 1185.24 591.36 1180.1 595.89 1168.79 596.41 1167.88 596.7 1167.4 601.83 1148.66 614.49 1154.55 616.88 1154.06 618.85 1153.86 619.24 1153.85 621.23 1153.77 622.27 1153.79 627.18 1153.89 629.81 1153.65 631.12 1153.36 634.01 1152.62 636.42 1151.71 638.28 1150.85 639.28 1150.34 643.71 1147.85 647.62 1145.56 652.38 1142.85 655.35 1141.25 658.56 1139.52 661.7 1137.86 664.75 1136.28 667.95 1134.79 670.48 1133.75 675.52 1131.55 679.44 1129.84 681.14 1129.11 679.02 1136.16 678.77 1136.72 675.06 1141.95 670.95 1148.5 653.89 1172.52 650.44 1178.52 649.58 1180.18 643.48 1191.18 641.95 1193.82 639.95 1197.34 626.26 1222.2 624 1226.53 623.25 1228.03 622.67 1229.56 622.2 1231.19 621.6 1233.86 621.23 1235.76 620.31 1238.32 619.33 1240.51 616.31 1245.71 606.1 1261.38 597.26 1275.98 596.82 1276.62 589.41 1283.37 587.14 1285.16 586.65 1285.5 Z"/>
<path d="M 548.14 1131.01 541.59 1173.6 538.67 1192.61 531.26 1196.74 496.07 1216.01 503.66 1168.02 510.24 1126.82 528.47 1128.71 548.14 1131.01 Z"/>
<path d="M 510.24 1126.82 503.66 1168.02 440.99 1158.31 440.29 1158.22 444.59 1133.32 447.93 1112.47 448.1 1110.55 460.03 1111.94 464.11 1112.57 465.83 1112.94 467.65 1113.39 469.6 1113.94 470.58 1114.25 472.43 1114.86 474.05 1115.46 476.07 1116.32 477.42 1116.92 478.93 1117.62 481.91 1119 484.16 1120.06 485.63 1120.78 488.12 1121.96 490.72 1123.02 492.77 1123.71 494.72 1124.29 497.11 1124.95 500.02 1125.54 503.09 1126.03 510.24 1126.82 Z"/>
<path d="M 734.42 1125.02 729.18 1142.81 714.09 1177.69 704.71 1198.98 690.46 1229.99 668.71 1258.75 641.25 1291.49 612 1316.72 599.97 1302.82 589.88 1290.83 585.85 1286.05 586.65 1285.5 587.14 1285.16 589.41 1283.37 596.82 1276.62 597.26 1275.98 606.1 1261.38 616.31 1245.71 619.33 1240.51 620.31 1238.32 621.23 1235.76 621.6 1233.86 622.2 1231.19 622.67 1229.56 623.25 1228.03 624 1226.53 626.26 1222.2 639.95 1197.34 641.95 1193.82 643.48 1191.18 649.58 1180.18 650.44 1178.52 653.89 1172.52 670.95 1148.5 675.06 1141.95 678.77 1136.72 679.02 1136.16 681.14 1129.11 683.32 1128.17 686.3 1126.86 689.27 1125.56 691.77 1124.45 694.43 1123.24 696.67 1122.18 699.12 1120.69 701.2 1119.16 702.56 1118.15 704.09 1116.88 706.1 1114.72 707.2 1113.28 709.14 1110.13 709.31 1109.83 710.23 1110.39 731.12 1122.99 734.42 1125.02 Z"/>
<path d="M 354.35 1110.61 345.94 1166.15 318.15 1162.82 320.12 1145.95 320.73 1142.84 322.71 1137.87 325.06 1133.8 334.42 1117.19 336.4 1112.98 337.23 1108.59 354.35 1110.61 Z"/>
<path d="M 416.85 1106.96 448.06 1110.55 448.1 1110.55 447.93 1112.47 444.59 1133.32 440.29 1158.22 436.95 1176.91 345.94 1166.15 354.35 1110.61 355.52 1103.08 355.67 1102.73 356.01 1099.95 356.37 1100.01 416.85 1106.96 Z"/>
<path d="M 334.1 1097.8 335.71 1097.92 340.58 1098.31 356.01 1099.95 355.67 1102.73 355.52 1103.08 354.35 1110.61 337.23 1108.59 336.4 1112.98 334.42 1117.19 325.06 1133.8 322.71 1137.87 320.73 1142.84 320.12 1145.95 318.15 1162.82 288.89 1159.37 284.17 1188.78 283.68 1192.42 281.05 1211.5 244.63 1206.79 215.63 1202.5 214.98 1202.59 196.49 1200.26 178.19 1197.93 178.16 1198.22 163.77 1196.35 164.6 1195.02 166.1 1192.9 167.71 1190.61 173.78 1181.34 174.88 1179.11 175.93 1176.13 177.1 1170.84 177.82 1166.01 179.55 1153.77 180.16 1149.75 182.21 1142.35 248.83 1150.52 250.36 1150.78 258.68 1149.48 260.33 1149.11 262.51 1148.51 264.39 1147.9 268.09 1146.53 272.51 1145.18 292.07 1139.12 298.39 1098.52 303.34 1098.26 306.87 1098.09 310.59 1097.92 315.28 1097.77 318.2 1097.64 325.52 1097.55 329.77 1097.59 333.12 1097.74 334.1 1097.8 Z"/>
<path d="M 182.21 1142.35 180.16 1149.75 179.55 1153.77 177.82 1166.01 177.1 1170.84 175.93 1176.13 174.88 1179.11 90.27 1168.58 91.94 1164.87 93.06 1161.66 94.18 1158.01 94.96 1155.43 96.04 1152.08 96.89 1149.98 97.81 1147.93 98.76 1146.03 100.34 1143.34 101.94 1140.79 103.98 1138.05 106.23 1135.39 107.93 1133.46 109.16 1132.15 112.47 1129.15 116.3 1126.18 118.35 1124.82 122.76 1122.39 127.39 1119.93 127.95 1119.59 154.11 1105.93 158.24 1103.91 163.21 1101.85 168.38 1100.01 171.31 1099.07 176 1097.71 178.82 1097.06 179.22 1098.22 180.21 1099.94 181.66 1101.85 182.74 1104.19 183.5 1105.92 184.09 1107.72 184.53 1109.63 184.72 1110.98 184.75 1112.3 184.67 1114.6 184.7 1122.05 184.75 1126.41 184.61 1129.33 184.38 1131.63 184.14 1133.81 183.79 1135.93 183.34 1137.97 182.79 1140.29 182.21 1142.35 Z"/>
<path d="M 709.14 1110.13 707.2 1113.28 706.1 1114.72 704.09 1116.88 702.56 1118.15 701.2 1119.16 699.12 1120.69 696.67 1122.18 694.43 1123.24 691.77 1124.45 689.27 1125.56 686.3 1126.86 683.32 1128.17 681.14 1129.11 679.44 1129.84 675.52 1131.55 670.48 1133.75 667.95 1134.79 664.75 1136.28 661.7 1137.86 658.56 1139.52 655.35 1141.25 652.38 1142.85 647.62 1145.56 643.71 1147.85 639.28 1150.34 638.28 1150.85 636.42 1151.71 634.01 1152.62 631.12 1153.36 629.81 1153.65 627.18 1153.89 622.27 1153.79 621.23 1153.77 619.24 1153.85 622.84 1148.91 651.41 1109.53 652.92 1105.74 655.93 1095.07 701.74 1106.77 704.04 1106.65 709.14 1110.13 Z"/>
<path d="M 655.93 1095.07 652.92 1105.74 651.41 1109.53 622.84 1148.91 619.24 1153.85 618.85 1153.86 616.88 1154.06 614.49 1154.55 601.83 1148.66 606.45 1131.75 609.68 1111.29 609.46 1111.21 616.71 1085.13 655.93 1095.07 Z"/>
<path d="M 616.71 1085.13 609.46 1111.21 609.68 1111.29 606.45 1131.75 601.83 1148.66 585.5 1141.07 583.27 1140.21 576.64 1137.66 572.22 1136.15 568.36 1134.82 564.19 1133.56 560.48 1132.6 558.24 1132.19 555.19 1131.75 548.14 1131.01 549.35 1124 552.53 1104.65 553.89 1098.78 562.57 1070.98 616.71 1085.13 Z"/>
<path d="M 178.82 1097.06 176 1097.71 171.31 1099.07 168.38 1100.01 163.21 1101.85 158.24 1103.91 154.11 1105.93 127.95 1119.59 127.39 1119.93 122.76 1122.39 118.35 1124.82 116.3 1126.18 112.47 1129.15 109.16 1132.15 107.93 1133.46 106.23 1135.39 103.98 1138.05 101.94 1140.79 100.34 1143.34 98.76 1146.03 97.81 1147.93 96.89 1149.98 96.04 1152.08 94.96 1155.43 94.18 1158.01 93.06 1161.66 91.94 1164.87 90.27 1168.58 90.24 1168.66 89.1 1170.7 87.31 1173.33 86.04 1174.94 84.18 1177.08 82.8 1178.36 79.45 1181.46 76.51 1184.09 73.24 1186.99 70.81 1189.2 64.08 1195.21 61.61 1197.67 58.2 1201.42 56.03 1204.14 53.21 1207.9 50.37 1212.01 47.23 1216.26 43.91 1219.96 40.55 1222.77 37 1225.12 29.81 1228.75 28.23 1229.51 24.64 1231.26 21.77 1232.76 18.43 1234.7 16.09 1236.2 13.45 1238.2 10.05 1241.14 9.77 1241.4 14.76 1225.43 29.77 1176.91 46.43 1123.06 46.94 1121.42 49.87 1119.15 52.59 1117.36 56.86 1115 58.66 1114.08 59.82 1113.59 61.17 1113.06 63.46 1112.27 64.19 1111.95 65.46 1111.37 75.4 1107.57 80.73 1105.38 139.68 1081.1 145.45 1078.72 154.2 1075.22 156.67 1074.41 160.15 1073.5 166.57 1072.31 176.94 1070.64 179.5 1070.47 177.48 1084.16 177.22 1087.56 177.34 1090.12 177.85 1093.9 178.75 1096.84 178.82 1097.06 Z"/>
<path d="M 298.39 1098.52 292.07 1139.12 272.51 1145.18 268.09 1146.53 264.39 1147.9 262.51 1148.51 260.33 1149.11 258.68 1149.48 250.36 1150.78 248.83 1150.52 182.21 1142.35 182.79 1140.29 183.34 1137.97 183.79 1135.93 184.14 1133.81 184.38 1131.63 184.61 1129.33 184.75 1126.41 184.7 1122.05 184.67 1114.6 184.75 1112.3 184.72 1110.98 184.53 1109.63 184.09 1107.72 183.5 1105.92 182.74 1104.19 181.66 1101.85 180.21 1099.94 179.22 1098.22 178.82 1097.06 178.75 1096.84 177.85 1093.9 177.34 1090.12 177.22 1087.56 177.48 1084.16 179.5 1070.47 223.15 1063.72 247.64 1060.04 264.89 1057.4 266.32 1057.16 270.53 1056.07 289.62 1049.22 306.54 1046.2 300.72 1083.53 298.39 1098.52 Z"/>
<path d="M 562.57 1070.98 553.89 1098.78 552.53 1104.65 549.35 1124 548.14 1131.01 528.47 1128.71 510.24 1126.82 503.09 1126.03 500.02 1125.54 497.11 1124.95 494.72 1124.29 492.77 1123.71 490.72 1123.02 488.12 1121.96 485.63 1120.78 484.16 1120.06 481.91 1119 478.93 1117.62 477.42 1116.92 476.07 1116.32 474.05 1115.46 472.43 1114.86 470.58 1114.25 469.6 1113.94 467.65 1113.39 465.83 1112.94 464.11 1112.57 460.03 1111.94 448.1 1110.55 448.37 1107.67 452.38 1082.42 462.48 1044.77 562.57 1070.98 Z"/>
<path d="M 657.71 746.81 651.68 746.27 643.87 745.55 622.17 754.37 621.78 754.53 616.02 756.86 613.43 750.69 604.72 742.99 603.44 741.95 602.38 741.17 596.47 737.72 595.67 736.99 585.66 724.24 585.25 723.86 563.8 711.81 564.18 711.43 594.46 673.67 595.66 672.02 602.37 667.41 603.01 667.88 606.54 670.7 611.17 674.23 613.87 676.4 614.29 676.75 614.68 677.07 615.04 677.39 615.4 677.71 615.77 678.03 616.15 678.38 616.56 678.74 616.96 679.13 617.38 679.52 617.8 679.92 618.23 680.35 618.69 680.8 619.17 681.29 619.69 681.84 620.23 682.43 620.8 683.04 621.45 683.69 621.93 684.19 622.55 684.91 624.36 687.11 624.98 687.87 625.34 688.35 627.6 691.55 629.42 694.31 634.23 702.84 637.56 709.14 640.06 713.83 643.99 721.18 649.42 731.27 654.01 739.88 657.71 746.81 Z"/>
<path d="M 595.66 672.02 594.46 673.67 564.18 711.43 563.8 711.81 561.72 714.23 549.43 734.49 549.88 734.74 542.65 747.85 519.22 734.87 505 760.24 463.15 737 463.81 736.52 482.36 703.57 494.42 681.49 495.27 680.17 497.67 678.44 527.15 658.41 530.17 665.58 532.02 670.09 533.03 671.83 545.25 689.29 565.22 675.81 573.19 687.13 595.66 672.02 Z"/>
<path d="M 602.37 667.41 595.66 672.02 573.19 687.13 565.22 675.81 545.25 689.29 533.03 671.83 532.02 670.09 530.17 665.58 527.15 658.41 526.47 656.93 525.61 655.25 525.05 654.33 523.62 652.54 523.42 652.28 547.46 635.89 548.06 635.86 550.39 635.91 552.12 636.01 555.24 636.44 558.08 637.05 560.06 637.61 562.22 638.39 564.09 639.21 566.16 640.27 567.1 640.76 567.59 641.05 570.04 642.66 571.47 643.72 575.37 646.67 582.02 651.78 592.61 659.88 601.83 667 602.37 667.41 Z"/>
<path d="M 510.59 643.25 517.56 647.64 518.91 648.52 520.31 649.44 521.48 650.44 522.96 651.71 523.42 652.28 523.62 652.54 525.05 654.33 525.61 655.25 526.47 656.93 527.15 658.41 497.67 678.44 495.27 680.17 494.42 681.49 482.36 703.57 463.81 736.52 463.15 737 447 728.04 429.73 718.86 420.07 713.97 378.32 690.9 399.06 652.78 407.1 657.17 408.49 654.71 408.36 654.64 411.3 649.37 418.69 653.36 426.35 639.44 427.04 637.9 427.43 637.09 427.61 636.34 429.92 632.95 431.98 634.37 435.28 636.61 439.19 639.21 441.6 640.68 443.2 641.53 445.6 642.62 447.16 643.21 448.91 643.79 451.22 644.44 453.17 644.84 455.74 645.23 458.44 645.46 461.6 645.41 464.86 645.29 481.24 644.55 506.04 643.48 510.59 643.25 Z"/>
<path d="M 769.75 988.75 767.02 988.39 745.34 985.39 744.15 985.29 743.29 985.06 741.55 984.59 741.43 979.02 741.21 969.2 741.21 965.05 740.45 961.8 739.9 959.09 739.56 957.76 738.85 955.68 737.96 953.21 737.2 951.18 735.98 948.36 735.66 947.7 735.04 946.39 733.38 942.94 730.97 937.17 728.37 930.81 727 927.43 724.55 921.57 721.24 913.52 718.24 905.94 714.18 895.84 710.79 887.38 704.9 872.54 698.83 857.17 697.07 852.82 693.69 844.26 692.73 841.81 689.92 834.83 688.6 831.32 687.9 829.24 686.95 825.92 686.6 824.25 686.12 821.82 685.85 820.15 685.44 817.16 685.01 813.7 684.44 809.9 684.04 807.15 683.34 803.37 682.69 800.8 681.56 797.22 680.59 794.65 679.1 790.82 677 785.46 675.37 781.36 674.01 778.06 671.39 772.57 669.78 769.41 667.67 765.48 663.91 758.43 659.49 750.14 657.71 746.81 654.01 739.88 649.42 731.27 643.99 721.18 640.06 713.83 637.56 709.14 634.23 702.84 629.42 694.31 627.6 691.55 625.34 688.35 624.98 687.87 624.36 687.11 622.55 684.91 621.93 684.19 621.45 683.69 620.8 683.04 620.23 682.43 619.69 681.84 619.17 681.29 618.69 680.8 618.23 680.35 617.8 679.92 617.38 679.52 616.96 679.13 616.56 678.74 616.15 678.38 615.77 678.03 615.4 677.71 615.04 677.39 614.68 677.07 614.29 676.75 613.87 676.4 611.17 674.23 606.54 670.7 603.01 667.88 602.37 667.41 606.57 664.5 669.37 621.73 671.1 620.53 720.46 696.91 738.46 768.26 763.58 878.46 770.71 953.17 771.46 977.08 769.75 988.75 Z"/>
<path d="M 429.92 632.95 427.61 636.34 427.43 637.09 427.04 637.9 426.35 639.44 418.69 653.36 411.3 649.37 408.36 654.64 408.49 654.71 407.1 657.17 399.06 652.78 387 646.17 387.18 645.82 390.94 638.53 389.96 637.99 390.06 634.85 389.89 632.89 389.83 627.31 390.68 627.82 390.64 626.3 390.44 626.23 391.21 621.99 386.59 619.51 386.27 619.33 389.45 613.41 391.15 610.16 392.89 611.1 396.48 613.02 400.08 614.92 411.94 621.28 417.77 624.8 422.17 627.67 425.7 630.05 428.75 632.15 429.92 632.95 Z"/>
<path d="M 342.87 670.71 290.96 765.63 247.25 735.56 226.45 721.31 189.98 696.56 191.37 694.3 216.47 653.62 249.14 600.68 259.73 612.26 264.02 616.99 266.04 619.05 267.28 620.17 270.93 623.06 286.86 636.46 297.82 645.03 301.34 647.68 304.45 649.45 342.87 670.71 Z"/>
<path d="M 510.59 643.25 506.04 643.48 481.24 644.55 464.86 645.29 461.6 645.41 458.44 645.46 455.74 645.23 453.17 644.84 451.22 644.44 448.91 643.79 447.16 643.21 445.6 642.62 443.2 641.53 441.6 640.68 439.19 639.21 435.28 636.61 431.98 634.37 429.92 632.95 428.75 632.15 425.7 630.05 422.17 627.67 417.77 624.8 411.94 621.28 400.08 614.92 396.48 613.02 392.89 611.1 391.15 610.16 389.03 609 382.7 605.56 375.87 601.85 372.34 600 369.74 598.69 368.01 597.78 366.09 596.56 364.42 595.6 366.21 594.37 437.27 544.52 447.88 559.86 454.4 570.82 495.76 630.83 499.16 635.22 502.06 637.8 510.59 643.25 Z"/>
<path d="M 364.42 595.6 366.09 596.56 368.01 597.78 369.74 598.69 372.34 600 375.87 601.85 382.7 605.56 389.03 609 391.15 610.16 389.45 613.41 386.27 619.33 386.59 619.51 391.21 621.99 390.44 626.23 390.64 626.3 390.68 627.82 389.83 627.31 389.89 632.89 390.06 634.85 389.96 637.99 390.94 638.53 387.18 645.82 387 646.17 399.06 652.78 378.32 690.9 374.82 689.04 366.78 684.63 354.39 677.72 342.87 670.71 304.45 649.45 301.34 647.68 297.82 645.03 286.86 636.46 270.93 623.06 267.28 620.17 266.04 619.05 264.02 616.99 259.73 612.26 249.14 600.68 250.93 597.78 301.24 516.25 301.99 516.64 310.53 521.15 312.09 521.98 313.98 523.03 315.22 523.79 316.85 524.89 318.56 526.25 320.38 527.82 322.29 529.87 323.69 531.65 325.17 533.74 326.02 535.17 327.42 537.92 328.08 539.53 328.09 539.54 329.05 542.58 329.67 545.43 330.04 548.71 330.22 552.4 330.32 554.7 330.46 557.6 330.8 560.66 331.18 563.14 331.61 565.22 332.19 567.11 332.9 568.98 333.68 570.76 334.67 572.76 335.7 574.6 336.52 575.88 337.15 576.77 338.42 578.49 339.53 579.8 340.61 580.99 343.09 583.37 345.35 585.09 348.77 587.35 351.56 588.89 354.37 590.38 358.72 592.63 361.8 594.2 363.18 594.87 364.42 595.6 Z"/>
<path d="M 437.27 544.52 366.21 594.37 364.42 595.6 363.18 594.87 361.8 594.2 358.72 592.63 354.37 590.38 351.56 588.89 348.77 587.35 345.35 585.09 343.09 583.37 340.61 580.99 339.53 579.8 338.42 578.49 337.15 576.77 336.52 575.88 335.7 574.6 334.67 572.76 333.68 570.76 332.9 568.98 332.19 567.11 331.61 565.22 331.18 563.14 330.8 560.66 330.46 557.6 330.32 554.7 330.22 552.4 330.04 548.71 329.67 545.43 329.05 542.58 328.09 539.54 328.08 539.53 328.58 538.79 329.63 537.77 329.92 537.12 331.18 534.89 331.68 534.01 332.56 532.76 332.99 532.26 334.54 530.63 335.37 529.9 338.01 527.77 363.68 507.85 372.66 500.92 390.93 477.14 437.27 544.52 Z"/>
<path d="M 506.98 522.41 512.8 537.14 515.24 542.61 516.35 545.14 519.85 553.19 522.85 560.74 526.02 570.31 533.27 592.15 535.7 599.2 539.01 606.03 542.8 612.12 545.68 615.66 550.55 620.41 540.62 626.79 530.49 633.75 528.01 635.47 525.84 637.56 523.52 640.31 522.13 642.16 521.54 642.25 520.35 642.48 517.35 642.9 510.59 643.25 502.06 637.8 499.16 635.22 495.76 630.83 454.4 570.82 447.88 559.86 437.27 544.52 390.93 477.14 420.66 438.41 425.3 440.39 429.18 442.03 431.32 442.94 436.34 445.07 441.47 447.24 446.05 449.21 449.99 450.86 453.21 452.29 455.24 453.26 457.59 454.41 460.11 455.69 462.61 457 466.98 459.44 468.81 460.52 471.86 462.47 473.33 463.49 474.9 464.63 478.15 467.13 481.25 469.71 482.79 471.07 485.9 474 487.42 475.5 488.87 476.98 490.2 478.39 491.39 479.68 492.41 480.82 494.18 482.88 495.92 485.03 497.24 486.69 497.35 488.27 497.45 490.12 497.82 493.18 498.59 497.55 499.04 499.4 501.61 506.83 506.98 522.41 Z"/>
<path d="M 390.93 477.14 372.66 500.92 363.68 507.85 338.01 527.77 335.37 529.9 334.54 530.63 332.99 532.26 332.56 532.76 331.68 534.01 331.18 534.89 329.92 537.12 329.63 537.77 328.58 538.79 328.08 539.53 327.42 537.92 326.02 535.17 325.17 533.74 323.69 531.65 322.29 529.87 320.38 527.82 318.56 526.25 316.85 524.89 315.22 523.79 313.98 523.03 312.09 521.98 310.53 521.15 301.99 516.64 301.24 516.25 310.49 501.26 351.79 434.33 355.81 427.85 358.26 430.02 360.07 432.61 390.93 477.14 Z"/>
<path d="M 420.66 438.41 390.93 477.14 360.07 432.61 358.26 430.02 355.81 427.85 361.26 419.07 370.15 404.74 375.15 396.67 377.9 392.23 407.55 377.39 420.87 370.71 439.34 361.46 443.39 359.43 442.34 363.53 442.78 363.68 443.21 363.94 443.45 364.12 443.78 364.47 443.87 364.59 444.17 365.16 444.22 365.27 444.35 365.8 444.34 366.57 444.25 366.99 443.99 367.59 443.64 368.06 443.19 368.45 442.79 368.68 442.48 368.81 441.81 368.93 441.36 368.92 439.33 382.91 434.69 417.09 434.13 419.93 433.52 421.43 432.74 422.67 420.66 438.41 Z"/>
<path d="M 584.27 334.61 582.08 344 575.23 367.61 569.73 432.79 577.61 471.27 589.6 504.89 592.23 509 628.23 565.78 624.85 569.14 670.97 620.32 671.1 620.53 669.37 621.73 606.57 664.5 602.37 667.41 601.83 667 592.61 659.88 582.02 651.78 575.37 646.67 571.47 643.72 570.04 642.66 567.59 641.05 567.1 640.76 566.16 640.27 564.09 639.21 562.22 638.39 560.06 637.61 558.08 637.05 555.24 636.44 552.12 636.01 550.39 635.91 548.06 635.86 547.46 635.89 523.42 652.28 522.96 651.71 521.48 650.44 520.31 649.44 518.91 648.52 517.56 647.64 510.59 643.25 517.35 642.9 520.35 642.48 521.54 642.25 522.13 642.16 523.52 640.31 525.84 637.56 528.01 635.47 530.49 633.75 540.62 626.79 550.55 620.41 545.68 615.66 542.8 612.12 539.01 606.03 535.7 599.2 533.27 592.15 526.02 570.31 522.85 560.74 519.85 553.19 516.35 545.14 515.24 542.61 512.8 537.14 506.98 522.41 516.47 515.87 519.81 513.99 539.32 500.05 525.99 480.93 519.06 470.74 515.94 466.14 514.37 463.78 513.03 461.39 510.75 456.37 510 454.03 509.3 451.23 508.9 447.45 508.91 443.97 509.34 440.09 509.79 436.84 513.42 408.89 519.85 359.64 520.73 353.5 521.37 350.2 522.44 346.78 522.76 346.08 524.09 343.51 525.39 341.45 527.05 339.22 528.43 337.59 529.59 336.4 530.61 335.49 534.94 331.85 536.11 330.57 536.6 329.81 537.43 327.81 540.3 325.15 543.92 322.03 547.22 319.35 551.57 324.18 557.13 329.26 558.79 330.35 559.84 330.77 561.71 331.2 563.46 331.32 565.61 331.23 566.51 331.18 568.8 331.18 570.49 331.43 572.53 331.87 575.53 332.48 578.04 332.93 579.36 333.18 582.24 333.97 584.27 334.61 Z"/>
<path d="M 547.22 319.35 543.92 322.03 540.3 325.15 537.43 327.81 536.6 329.81 536.11 330.57 534.94 331.85 530.61 335.49 529.59 336.4 528.43 337.59 527.05 339.22 525.39 341.45 524.09 343.51 522.76 346.08 522.44 346.78 521.37 350.2 520.73 353.5 519.85 359.64 513.42 408.89 509.79 436.84 509.34 440.09 508.91 443.97 508.9 447.45 509.3 451.23 510 454.03 510.75 456.37 513.03 461.39 514.37 463.78 515.94 466.14 519.06 470.74 525.99 480.93 539.32 500.05 519.81 513.99 516.47 515.87 506.98 522.41 501.61 506.83 499.04 499.4 498.59 497.55 497.82 493.18 497.45 490.12 497.35 488.27 497.24 486.69 495.92 485.03 494.18 482.88 492.41 480.82 491.39 479.68 490.2 478.39 488.87 476.98 487.42 475.5 485.9 474 482.79 471.07 481.25 469.71 478.15 467.13 474.9 464.63 473.33 463.49 471.86 462.47 468.81 460.52 466.98 459.44 462.61 457 460.11 455.69 457.59 454.41 455.24 453.26 453.21 452.29 449.99 450.86 446.05 449.21 441.47 447.24 436.34 445.07 431.32 442.94 429.18 442.03 425.3 440.39 420.66 438.41 432.74 422.67 433.52 421.43 434.13 419.93 434.69 417.09 439.33 382.91 441.36 368.92 441.81 368.93 442.48 368.81 442.79 368.68 443.19 368.45 443.64 368.06 443.99 367.59 444.25 366.99 444.34 366.57 444.35 365.8 444.22 365.27 444.17 365.16 443.87 364.59 443.78 364.47 443.45 364.12 443.21 363.94 442.78 363.68 442.34 363.53 443.39 359.43 474.44 343.88 490.08 336.46 506.04 327.53 506.64 327.19 528.62 319.73 541.75 312.97 541.79 313.13 541.92 313.42 542.16 313.73 542.47 314.07 547.22 319.35 Z"/>
<path d="M 584.27 334.61 582.24 333.97 579.36 333.18 578.04 332.93 575.53 332.48 572.53 331.87 570.49 331.43 568.8 331.18 566.51 331.18 565.61 331.23 563.46 331.32 561.71 331.2 559.84 330.77 558.79 330.35 557.13 329.26 551.57 324.18 547.22 319.35 542.47 314.07 542.16 313.73 541.92 313.42 541.79 313.13 541.75 312.97 542.36 312.65 544.41 309.85 553.53 297.64 561.62 289.47 563.65 288.27 592.99 269.55 611.73 251.4 619 244.44 647.4 211.7 650.82 207.75 677.04 177.52 687.44 160.96 693.93 153.23 706.28 138.65 721.19 118.27 723.51 115.18 724.3 114.12 724.68 113.49 725.77 112 732.85 100.16 737.71 92.22 744.22 67.74 744.98 62.85 750.69 27.56 749.37 10.5 748.71 1 799 7.72 766.21 100.32 761.94 124.54 757.7 141.85 754.59 152.64 747.81 163.43 740.19 173.08 726.38 185.54 709.69 197.49 669.85 227.33 628.6 262.07 618.85 271.41 603.48 289.34 595.68 299.63 587.73 315.86 585.99 327.28 584.27 334.61 Z"/>
<path d="M 253.02 911.58 293.94 916.67 301.68 917.6 304.19 918.04 305.27 918.29 306.15 918.59 307.22 918.99 305.27 929.52 302.8 948.71 298.68 981.07 298.38 983.87 298.07 987.09 298.07 989.41 298.51 993.85 298.69 994.94 299.8 998.4 300.72 1000.76 304.28 1008.17 307.92 1015.62 308.72 1017.64 309.26 1019.52 309.54 1021.45 309.46 1022.63 309.14 1025.77 253.99 1019.03 196.19 1012.1 186.5 1010.97 161.78 1007.76 147.99 1006.13 132.84 1004.33 126.59 1003.57 115.95 1002.28 111.57 1001.58 91.46 999.23 88.56 998.96 88.67 998.75 89.53 993.69 89.81 992.11 90.84 987.62 91.94 982.39 92.41 979.68 93.15 973.69 94.03 966.16 94.9 958.59 95.97 951.15 97.2 943.52 98.52 936.6 104.11 917.51 104.5 916.19 104.81 914.88 105.56 910.91 106.48 905.15 107.64 895.54 108.14 891.57 108.5 891.66 108.78 891.78 109 891.92 109.2 892.07 109.4 892.28 109.6 892.54 109.72 892.8 109.82 893.09 109.88 893.4 109.88 893.66 109.85 893.97 188.54 903.66 189.85 893.31 193.69 893.93 197.45 894.56 196.28 904.62 253.02 911.58 Z"/>
<path d="M 228.17 852.55 253.37 855.69 254.78 856.05 257.9 856.96 259.33 857.49 259.98 857.76 253.02 911.58 196.28 904.62 197.45 894.56 193.69 893.93 195.82 877.74 197.09 867.55 197.34 865.6 197.64 862.83 199.35 849.73 199.46 848.96 228.17 852.55 Z"/>
<path d="M 199.46 848.96 199.35 849.73 197.64 862.83 197.34 865.6 197.09 867.55 195.82 877.74 193.69 893.93 189.85 893.31 188.54 903.66 109.85 893.97 109.88 893.66 109.88 893.4 109.82 893.09 109.72 892.8 109.6 892.54 109.4 892.28 109.2 892.07 109 891.92 108.78 891.78 108.5 891.66 108.14 891.57 107.91 891.56 107.48 891.59 107.24 891.66 107.01 891.75 106.65 891.99 106.36 892.27 106.16 892.54 105.96 893.03 105.9 893.45 96.09 892.16 103.16 837.25 142.99 842.02 199.46 848.96 Z"/>
<path d="M 741.55 984.59 743.29 985.06 744.15 985.29 745.34 985.39 767.02 988.39 769.75 988.75 768.04 1021.48 734.42 1125.02 731.12 1122.99 710.23 1110.39 709.31 1109.83 709.14 1110.13 704.04 1106.65 701.74 1106.77 655.93 1095.07 655.96 1094.48 667.73 1055.95 674.67 1033.83 681.74 1007.38 682.9 1003.53 684.02 999.97 688.11 985.9 690.11 978.42 690.33 977.63 691.61 978.19 730.53 988.3 733.2 989.14 735.75 990.35 736.71 990.77 737.12 991.01 738.53 992.01 738.97 992.29 739.65 992.57 741.33 993.07 741.73 993.21 741.55 984.59 Z"/>
</g>
</svg>